Coordinates
version=1
nRows=20
nColumns=30
inDegrees=yes

Units are S.I. units (second, meters, Newtons, ...)
Angles are in degrees.

endheader
time	floatyaw	floatroll	floatpitch	floatx	floaty	floatz	pro_sup_l	deviation_l	flexion_l	cmc_flexion_l	cmc_abduction_l	mp_flexion_l	ip_flexion_l	2mcp_flexion_l	2mcp_abduction_l	2pm_flexion_l	2md_flexion_l	3mcp_flexion_l	3mcp_abduction_l	3pm_flexion_l	3md_flexion_l	4mcp_flexion_l	4mcp_abduction_l	4pm_flexion_l	4md_flexion_l	5mcp_flexion_l	5mcp_abduction_l	5pm_flexion_l	5md_flexion_l
0.005000	-1.089067	-4.156866	93.821839	0.149686	-0.259507	0.139406	91.207968	16.678187	17.250954	-8.073868	30.131608	-20.841624	-18.061668	57.239017	11.153415	26.943715	23.689513	55.586135	7.276544	34.079742	59.644700	42.985183	-6.162311	49.832862	50.825632	23.038138	-8.953009	44.430285	42.116602
0.015000	-1.089067	-4.156866	93.821839	0.148962	-0.259230	0.138164	90.329819	16.459800	16.383065	-7.355793	29.632718	-21.294089	-19.819656	57.958835	11.117705	26.761132	23.842498	55.429920	7.183704	34.783454	61.165864	42.777448	-6.312819	50.432010	52.407003	23.488028	-8.742904	44.171510	41.769156
0.025000	-1.089067	-4.156866	93.821839	0.148160	-0.258895	0.136892	89.452679	16.259620	15.486526	-6.545103	29.311366	-21.732352	-21.881950	58.631166	11.083518	26.643410	24.053571	55.270012	7.096481	35.571744	62.718624	42.588512	-6.455055	50.998540	54.086601	23.879555	-8.552690	43.968181	41.458914
0.035000	-1.089067	-4.156866	93.821839	0.147334	-0.258556	0.135622	88.612214	16.081885	14.616737	-5.709131	29.181721	-22.117748	-24.110037	59.237199	11.054576	26.589509	24.299724	55.129866	7.021343	36.373496	64.193253	42.440324	-6.573760	51.486255	55.774151	24.220792	-8.401392	43.822641	41.197826
0.045000	-1.089067	-4.156866	93.821839	0.146532	-0.258272	0.134392	87.849924	15.935244	13.830251	-4.929072	29.235874	-22.407050	-26.314434	59.748478	11.033249	26.586733	24.534012	55.023910	6.961149	37.111497	65.463539	42.348749	-6.658495	51.847099	57.354679	24.514627	-8.294893	43.730143	40.983504
0.055000	-1.089067	-4.156866	93.821839	0.145788	-0.258092	0.133256	87.208482	15.832195	13.167192	-4.281092	29.442886	-22.569517	-28.298083	60.141988	11.021336	26.613047	24.699644	54.959466	6.914711	37.717866	66.432504	42.323659	-6.706873	52.045934	58.718268	24.763004	-8.224528	43.682203	40.806310
0.065000	-1.089067	-4.156866	93.821839	0.145113	-0.258040	0.132277	86.722991	15.785097	12.639744	-3.815173	29.751510	-22.599801	-29.906087	60.411575	11.019505	26.644957	24.750574	54.938211	6.877907	38.147294	67.062954	42.365571	-6.724160	52.075703	59.787437	24.972448	-8.174795	43.667442	40.655626
0.075000	-1.089067	-4.156866	93.821839	0.144506	-0.258107	0.131512	86.410764	15.800708	12.231667	-3.541169	30.099581	-22.520584	-31.064246	60.572408	11.026030	26.666875	24.668985	54.958767	6.845907	38.385022	67.383986	42.464218	-6.720247	51.965217	60.532621	25.156870	-8.133364	43.672869	40.524055
0.085000	-1.089067	-4.156866	93.821839	0.143967	-0.258255	0.130997	86.264229	15.876069	11.909042	-3.428902	30.429451	-22.373897	-31.791481	60.656966	11.036545	26.675836	24.471079	55.019411	6.815427	38.447701	67.473904	42.602040	-6.705890	51.772603	60.973052	25.334462	-8.096057	43.687151	40.408873
0.095000	-1.089067	-4.156866	93.821839	0.143501	-0.258433	0.130725	86.250805	15.997562	11.636927	-3.422320	30.702874	-22.205827	-32.181301	60.704478	11.045525	26.677958	24.198999	55.118542	6.785904	38.376417	67.429541	42.760865	-6.689675	51.564161	61.167313	25.519631	-8.064646	43.704304	40.310693
0.105000	-1.089067	-4.156866	93.821839	0.143124	-0.258592	0.130649	86.320606	16.143382	11.393578	-3.461094	30.906696	-22.052209	-32.360248	60.748845	11.048357	26.678909	23.903784	55.252059	6.759190	38.223031	67.336808	42.927303	-6.676322	51.387696	61.199475	25.715201	-8.041122	43.724462	40.230108
0.115000	-1.089067	-4.156866	93.821839	0.142850	-0.258702	0.130693	86.419603	16.288484	11.175470	-3.500235	31.046233	-21.931419	-32.441004	60.810164	11.042530	26.675465	23.627561	55.409636	6.738052	38.034358	67.253808	43.093621	-6.666438	51.254382	61.163303	25.910417	-8.023605	43.749868	40.163896
0.125000	-1.089067	-4.156866	93.821839	0.142680	-0.258755	0.130778	86.503710	16.410457	10.991730	-3.520079	31.132285	-21.845915	-32.490344	60.892129	11.027829	26.654973	23.392380	55.573122	6.724273	37.841466	67.208635	43.254350	-6.657681	51.140147	61.144115	26.086025	-8.006425	43.778498	40.103259
0.135000	-1.089067	-4.156866	93.821839	0.142595	-0.258763	0.130845	86.548877	16.494529	10.852502	-3.523770	31.171981	-21.789649	-32.525127	60.984560	11.006255	26.604099	23.200070	55.719000	6.717264	37.659632	67.206542	43.401493	-6.647000	51.007363	61.199666	26.222814	-7.983332	43.800914	40.036626
0.145000	-1.089067	-4.156866	93.821839	0.142557	-0.258748	0.130870	86.553687	16.536164	10.758709	-3.525327	31.169006	-21.756143	-32.534398	61.069108	10.981887	26.521166	23.042534	55.824464	6.713941	37.497331	67.240076	43.521898	-6.632973	50.835041	61.346249	26.308586	-7.951099	43.804066	39.956821
0.155000	-1.089067	-4.156866	93.821839	0.142525	-0.258740	0.130865	86.533988	16.540500	10.699043	-3.535950	31.129948	-21.742709	-32.510445	61.126289	10.960120	26.422777	22.915798	55.874713	6.710035	37.365602	67.298314	43.599190	-6.617057	50.638621	61.557978	26.341055	-7.911256	43.779743	39.868054
0.165000	-1.089067	-4.156866	93.821839	0.142470	-0.258760	0.130862	86.512385	16.519032	10.655014	-3.556438	31.068760	-21.749432	-32.467258	61.142306	10.945990	26.338703	22.827965	55.868257	6.702117	37.279417	67.372889	43.620052	-6.603042	50.465662	61.781931	26.327303	-7.869281	43.730963	39.786494
0.175000	-1.089067	-4.156866	93.821839	0.142384	-0.258817	0.130892	86.507289	16.484947	10.609975	-3.578802	31.004420	-21.775165	-32.435892	61.113935	10.942193	26.297388	22.794945	55.817498	6.689205	37.250703	67.458659	43.581698	-6.595042	50.369873	61.962611	26.281454	-7.832089	43.671359	39.732270
0.185000	-1.089067	-4.156866	93.821839	0.142276	-0.258902	0.130969	86.525885	16.448981	10.556277	-3.593665	30.953783	-21.814437	-32.444290	61.049840	10.947849	26.311389	22.826823	55.743787	6.673053	37.280483	67.548991	43.495834	-6.595239	50.380954	62.063637	26.221416	-7.805292	43.618379	39.717571
0.195000	-1.089067	-4.156866	93.821839	0.142167	-0.258997	0.131083	86.563162	16.417277	10.496663	-3.596940	30.925553	-21.857789	-32.499228	60.967852	10.958666	26.371844	22.914834	55.669070	6.657068	37.357656	67.629817	43.386163	-6.602668	50.489416	62.077340	26.165002	-7.791386	43.585234	39.738853
